<svg width="117" height="24" viewBox="0 0 117 24" fill="none" xmlns="http://www.w3.org/2000/svg">
<path d="M16.0464 23H0.266414V19.43L11.0964 4.61H0.506414V1.07H15.8664V4.49L4.94641 19.46H16.0464V23ZM25.2002 23.39C23.7402 23.39 22.4402 23.06 21.3002 22.4C20.1802 21.72 19.3002 20.8 18.6602 19.64C18.0202 18.46 17.7002 17.11 17.7002 15.59C17.7002 14.05 18.0102 12.69 18.6302 11.51C19.2502 10.33 20.1202 9.41 21.2402 8.75C22.3602 8.07 23.6402 7.73 25.0802 7.73C26.5802 7.73 27.8702 8.05 28.9502 8.69C30.0302 9.31 30.8602 10.18 31.4402 11.3C32.0402 12.42 32.3402 13.76 32.3402 15.32V16.43L19.6202 16.46L19.6802 14.12H28.7102C28.7102 13.1 28.3802 12.28 27.7202 11.66C27.0802 11.04 26.2102 10.73 25.1102 10.73C24.2502 10.73 23.5202 10.91 22.9202 11.27C22.3402 11.63 21.9002 12.17 21.6002 12.89C21.3002 13.61 21.1502 14.49 21.1502 15.53C21.1502 17.13 21.4902 18.34 22.1702 19.16C22.8702 19.98 23.9002 20.39 25.2602 20.39C26.2602 20.39 27.0802 20.2 27.7202 19.82C28.3802 19.44 28.8102 18.9 29.0102 18.2H32.4002C32.0802 19.82 31.2802 21.09 30.0002 22.01C28.7402 22.93 27.1402 23.39 25.2002 23.39ZM38.9294 23H35.2694V8.18H38.6594L38.9594 10.1C39.4194 9.36 40.0694 8.78 40.9094 8.36C41.7694 7.94 42.6994 7.73 43.6994 7.73C45.5594 7.73 46.9594 8.28 47.8994 9.38C48.8594 10.48 49.3394 11.98 49.3394 13.88V23H45.6794V14.75C45.6794 13.51 45.3994 12.59 44.8394 11.99C44.2794 11.37 43.5194 11.06 42.5594 11.06C41.4194 11.06 40.5294 11.42 39.8894 12.14C39.2494 12.86 38.9294 13.82 38.9294 15.02V23ZM59.0254 23.39C57.5854 23.39 56.3454 23.07 55.3054 22.43C54.2854 21.77 53.4854 20.86 52.9054 19.7C52.3454 18.54 52.0654 17.19 52.0654 15.65C52.0654 14.11 52.3454 12.75 52.9054 11.57C53.4854 10.37 54.3154 9.43 55.3954 8.75C56.4754 8.07 57.7554 7.73 59.2354 7.73C60.2754 7.73 61.2254 7.94 62.0854 8.36C62.9454 8.76 63.6054 9.33 64.0654 10.07V0.679999H67.6954V23H64.3354L64.0954 20.69C63.6554 21.53 62.9754 22.19 62.0554 22.67C61.1554 23.15 60.1454 23.39 59.0254 23.39ZM59.8354 20.03C60.6954 20.03 61.4354 19.85 62.0554 19.49C62.6754 19.11 63.1554 18.58 63.4954 17.9C63.8554 17.2 64.0354 16.41 64.0354 15.53C64.0354 14.63 63.8554 13.85 63.4954 13.19C63.1554 12.51 62.6754 11.98 62.0554 11.6C61.4354 11.2 60.6954 11 59.8354 11C58.9954 11 58.2654 11.2 57.6454 11.6C57.0254 11.98 56.5454 12.51 56.2054 13.19C55.8854 13.87 55.7254 14.65 55.7254 15.53C55.7254 16.41 55.8854 17.19 56.2054 17.87C56.5454 18.55 57.0254 19.08 57.6454 19.46C58.2654 19.84 58.9954 20.03 59.8354 20.03ZM78.1396 23.39C76.6796 23.39 75.3796 23.06 74.2396 22.4C73.1196 21.72 72.2396 20.8 71.5996 19.64C70.9596 18.46 70.6396 17.11 70.6396 15.59C70.6396 14.05 70.9496 12.69 71.5696 11.51C72.1896 10.33 73.0596 9.41 74.1796 8.75C75.2996 8.07 76.5796 7.73 78.0196 7.73C79.5196 7.73 80.8096 8.05 81.8896 8.69C82.9696 9.31 83.7996 10.18 84.3796 11.3C84.9796 12.42 85.2796 13.76 85.2796 15.32V16.43L72.5596 16.46L72.6196 14.12H81.6496C81.6496 13.1 81.3196 12.28 80.6596 11.66C80.0196 11.04 79.1496 10.73 78.0496 10.73C77.1896 10.73 76.4596 10.91 75.8596 11.27C75.2796 11.63 74.8396 12.17 74.5396 12.89C74.2396 13.61 74.0896 14.49 74.0896 15.53C74.0896 17.13 74.4296 18.34 75.1096 19.16C75.8096 19.98 76.8396 20.39 78.1996 20.39C79.1996 20.39 80.0196 20.2 80.6596 19.82C81.3196 19.44 81.7496 18.9 81.9496 18.2H85.3396C85.0196 19.82 84.2196 21.09 82.9396 22.01C81.6796 22.93 80.0796 23.39 78.1396 23.39ZM87.0688 18.5H90.5488C90.5688 19.14 90.8088 19.65 91.2688 20.03C91.7288 20.41 92.3688 20.6 93.1888 20.6C94.0688 20.6 94.7288 20.44 95.1688 20.12C95.6288 19.8 95.8588 19.37 95.8588 18.83C95.8588 18.47 95.7388 18.15 95.4988 17.87C95.2588 17.59 94.8088 17.38 94.1488 17.24L91.4788 16.61C90.1388 16.31 89.1388 15.83 88.4788 15.17C87.8388 14.49 87.5188 13.56 87.5188 12.38C87.5188 11.42 87.7688 10.59 88.2688 9.89C88.7888 9.19 89.4888 8.66 90.3688 8.3C91.2488 7.92 92.2588 7.73 93.3988 7.73C94.4988 7.73 95.4688 7.93 96.3088 8.33C97.1488 8.73 97.7988 9.29 98.2588 10.01C98.7388 10.73 98.9888 11.57 99.0088 12.53H95.5288C95.5288 11.89 95.3288 11.39 94.9288 11.03C94.5288 10.65 93.9688 10.46 93.2488 10.46C92.5288 10.46 91.9688 10.62 91.5688 10.94C91.1688 11.26 90.9688 11.69 90.9688 12.23C90.9688 13.05 91.6088 13.61 92.8888 13.91L95.5588 14.54C96.7988 14.82 97.7288 15.27 98.3488 15.89C98.9888 16.51 99.3088 17.39 99.3088 18.53C99.3088 19.53 99.0488 20.4 98.5288 21.14C98.0088 21.86 97.2788 22.42 96.3388 22.82C95.3988 23.2 94.3188 23.39 93.0988 23.39C91.2588 23.39 89.7888 22.94 88.6888 22.04C87.6088 21.14 87.0688 19.96 87.0688 18.5ZM105.786 23H102.156V0.679999H105.786V14.39L111.546 8.18H116.136L110.496 14.06L116.016 23H111.816L107.946 16.76L105.786 19.01V23Z" fill="white"/>
</svg>
