<svg width="128" height="31" viewBox="0 0 128 31" fill="none" xmlns="http://www.w3.org/2000/svg">
<path d="M4.27 23H0.43V1.07H4.27V10.16H13.99V1.07H17.83V23H13.99V13.7H4.27V23ZM28.7563 23.39C27.2963 23.39 25.9963 23.06 24.8563 22.4C23.7363 21.72 22.8563 20.8 22.2163 19.64C21.5763 18.46 21.2563 17.11 21.2563 15.59C21.2563 14.05 21.5663 12.69 22.1863 11.51C22.8063 10.33 23.6763 9.41 24.7963 8.75C25.9163 8.07 27.1963 7.73 28.6363 7.73C30.1363 7.73 31.4263 8.05 32.5063 8.69C33.5863 9.31 34.4163 10.18 34.9963 11.3C35.5963 12.42 35.8963 13.76 35.8963 15.32V16.43L23.1763 16.46L23.2363 14.12H32.2663C32.2663 13.1 31.9363 12.28 31.2763 11.66C30.6363 11.04 29.7663 10.73 28.6663 10.73C27.8063 10.73 27.0763 10.91 26.4763 11.27C25.8963 11.63 25.4563 12.17 25.1563 12.89C24.8563 13.61 24.7063 14.49 24.7063 15.53C24.7063 17.13 25.0463 18.34 25.7263 19.16C26.4263 19.98 27.4563 20.39 28.8163 20.39C29.8163 20.39 30.6363 20.2 31.2763 19.82C31.9363 19.44 32.3663 18.9 32.5663 18.2H35.9563C35.6363 19.82 34.8363 21.09 33.5563 22.01C32.2963 22.93 30.6963 23.39 28.7563 23.39ZM42.5155 23H38.8855V0.679999H42.5155V23ZM46.3548 29.87V8.18H49.7448L49.9848 10.43C50.4248 9.57 51.1048 8.91 52.0248 8.45C52.9448 7.97 53.9548 7.73 55.0548 7.73C56.4748 7.73 57.6948 8.05 58.7148 8.69C59.7548 9.33 60.5648 10.22 61.1448 11.36C61.7248 12.5 62.0148 13.85 62.0148 15.41C62.0148 16.95 61.7448 18.32 61.2048 19.52C60.6648 20.72 59.8748 21.67 58.8348 22.37C57.8148 23.05 56.5648 23.39 55.0848 23.39C53.9848 23.39 52.9748 23.18 52.0548 22.76C51.1548 22.34 50.4748 21.76 50.0148 21.02V29.87H46.3548ZM50.0448 15.59C50.0448 16.47 50.2148 17.25 50.5548 17.93C50.8948 18.61 51.3748 19.15 51.9948 19.55C52.6348 19.93 53.3748 20.12 54.2148 20.12C55.0748 20.12 55.8148 19.93 56.4348 19.55C57.0548 19.15 57.5248 18.61 57.8448 17.93C58.1648 17.25 58.3248 16.47 58.3248 15.59C58.3248 14.71 58.1648 13.93 57.8448 13.25C57.5248 12.57 57.0548 12.04 56.4348 11.66C55.8148 11.26 55.0748 11.06 54.2148 11.06C53.3748 11.06 52.6348 11.25 51.9948 11.63C51.3748 12.01 50.8948 12.54 50.5548 13.22C50.2148 13.9 50.0448 14.69 50.0448 15.59ZM61.3891 29.96L61.9891 26.72C62.2491 26.8 62.4691 26.85 62.6491 26.87C62.8291 26.89 63.0291 26.9 63.2491 26.9C63.8891 26.9 64.3291 26.72 64.5691 26.36C64.8091 26 64.9291 25.45 64.9291 24.71V8.18H68.5891V25.13C68.5891 26.69 68.1491 27.94 67.2691 28.88C66.4091 29.82 65.1791 30.29 63.5791 30.29C63.2391 30.29 62.9091 30.27 62.5891 30.23C62.2691 30.19 61.8691 30.1 61.3891 29.96ZM66.7591 5.21C66.1391 5.21 65.6091 5 65.1691 4.58C64.7491 4.14 64.5391 3.61 64.5391 2.99C64.5391 2.37 64.7491 1.85 65.1691 1.43C65.6091 1.01 66.1391 0.8 66.7591 0.8C67.3591 0.8 67.8791 1.01 68.3191 1.43C68.7591 1.85 68.9791 2.37 68.9791 2.99C68.9791 3.61 68.7591 4.14 68.3191 4.58C67.8791 5 67.3591 5.21 66.7591 5.21ZM82.4205 8.18H86.0805V23H82.6905L82.4205 21.02C81.9805 21.72 81.3205 22.29 80.4405 22.73C79.5605 23.17 78.6205 23.39 77.6205 23.39C75.9205 23.39 74.5905 22.85 73.6305 21.77C72.6705 20.69 72.1905 19.25 72.1905 17.45V8.18H75.8505V16.16C75.8505 17.56 76.1205 18.57 76.6605 19.19C77.2005 19.81 77.9805 20.12 79.0005 20.12C80.1605 20.12 81.0205 19.78 81.5805 19.1C82.1405 18.4 82.4205 17.35 82.4205 15.95V8.18ZM89.8607 23V8.18H93.5207V23H89.8607ZM91.6607 5.21C91.0407 5.21 90.5107 5 90.0707 4.58C89.6507 4.14 89.4407 3.61 89.4407 2.99C89.4407 2.37 89.6507 1.85 90.0707 1.43C90.5107 1.01 91.0407 0.8 91.6607 0.8C92.2807 0.8 92.8007 1.01 93.2207 1.43C93.6607 1.85 93.8807 2.37 93.8807 2.99C93.8807 3.61 93.6607 4.14 93.2207 4.58C92.8007 5 92.2807 5.21 91.6607 5.21ZM96.4321 15.56C96.4321 14.04 96.7421 12.69 97.3621 11.51C98.0021 10.33 98.8721 9.41 99.9721 8.75C101.092 8.07 102.382 7.73 103.842 7.73C105.862 7.73 107.512 8.26 108.792 9.32C110.092 10.36 110.842 11.77 111.042 13.55H107.382C107.162 12.71 106.752 12.08 106.152 11.66C105.572 11.22 104.842 11 103.962 11C103.202 11 102.522 11.19 101.922 11.57C101.342 11.93 100.892 12.45 100.572 13.13C100.252 13.81 100.092 14.62 100.092 15.56C100.092 16.5 100.242 17.31 100.542 17.99C100.842 18.67 101.272 19.2 101.832 19.58C102.412 19.94 103.092 20.12 103.872 20.12C104.792 20.12 105.552 19.9 106.152 19.46C106.772 19.02 107.182 18.39 107.382 17.57H111.072C110.912 18.73 110.502 19.75 109.842 20.63C109.202 21.49 108.372 22.17 107.352 22.67C106.332 23.15 105.172 23.39 103.872 23.39C102.372 23.39 101.062 23.07 99.9421 22.43C98.8221 21.77 97.9521 20.86 97.3321 19.7C96.7321 18.52 96.4321 17.14 96.4321 15.56ZM120.426 23.39C118.966 23.39 117.666 23.06 116.526 22.4C115.406 21.72 114.526 20.8 113.886 19.64C113.246 18.46 112.926 17.11 112.926 15.59C112.926 14.05 113.236 12.69 113.856 11.51C114.476 10.33 115.346 9.41 116.466 8.75C117.586 8.07 118.866 7.73 120.306 7.73C121.806 7.73 123.096 8.05 124.176 8.69C125.256 9.31 126.086 10.18 126.666 11.3C127.266 12.42 127.566 13.76 127.566 15.32V16.43L114.846 16.46L114.906 14.12H123.936C123.936 13.1 123.606 12.28 122.946 11.66C122.306 11.04 121.436 10.73 120.336 10.73C119.476 10.73 118.746 10.91 118.146 11.27C117.566 11.63 117.126 12.17 116.826 12.89C116.526 13.61 116.376 14.49 116.376 15.53C116.376 17.13 116.716 18.34 117.396 19.16C118.096 19.98 119.126 20.39 120.486 20.39C121.486 20.39 122.306 20.2 122.946 19.82C123.606 19.44 124.036 18.9 124.236 18.2H127.626C127.306 19.82 126.506 21.09 125.226 22.01C123.966 22.93 122.366 23.39 120.426 23.39Z" fill="white"/>
</svg>
