<svg width="159" height="24" viewBox="0 0 159 24" fill="none" xmlns="http://www.w3.org/2000/svg">
<path d="M10.7001 23.36C8.56006 23.36 6.70006 22.9 5.12006 21.98C3.56006 21.04 2.34006 19.73 1.46006 18.05C0.600061 16.35 0.170061 14.35 0.170061 12.05C0.170061 9.77 0.610061 7.78 1.49006 6.08C2.39006 4.38 3.65006 3.06 5.27006 2.12C6.89006 1.18 8.76006 0.709999 10.8801 0.709999C12.6201 0.709999 14.1801 1.03 15.5601 1.67C16.9401 2.31 18.0801 3.21 18.9801 4.37C19.8801 5.51 20.4501 6.87 20.6901 8.45H16.6401C16.2601 7.17 15.5501 6.18 14.5101 5.48C13.4901 4.76 12.2401 4.4 10.7601 4.4C9.44006 4.4 8.28006 4.71 7.28006 5.33C6.30006 5.95 5.54006 6.83 5.00006 7.97C4.46006 9.11 4.19006 10.47 4.19006 12.05C4.19006 13.57 4.46006 14.91 5.00006 16.07C5.54006 17.21 6.30006 18.1 7.28006 18.74C8.28006 19.36 9.44006 19.67 10.7601 19.67C12.2601 19.67 13.5401 19.31 14.6001 18.59C15.6801 17.87 16.4001 16.9 16.7601 15.68H20.7501C20.4701 17.2 19.8601 18.54 18.9201 19.7C18.0001 20.86 16.8301 21.76 15.4101 22.4C14.0101 23.04 12.4401 23.36 10.7001 23.36ZM22.7837 15.56C22.7837 14.02 23.1237 12.67 23.8037 11.51C24.4837 10.33 25.4237 9.41 26.6237 8.75C27.8237 8.09 29.1837 7.76 30.7037 7.76C32.2437 7.76 33.6037 8.09 34.7837 8.75C35.9837 9.41 36.9237 10.33 37.6037 11.51C38.2837 12.67 38.6237 14.02 38.6237 15.56C38.6237 17.1 38.2837 18.46 37.6037 19.64C36.9237 20.8 35.9837 21.71 34.7837 22.37C33.6037 23.03 32.2437 23.36 30.7037 23.36C29.1837 23.36 27.8237 23.03 26.6237 22.37C25.4237 21.71 24.4837 20.8 23.8037 19.64C23.1237 18.46 22.7837 17.1 22.7837 15.56ZM26.4437 15.56C26.4437 16.46 26.6237 17.25 26.9837 17.93C27.3637 18.61 27.8637 19.14 28.4837 19.52C29.1237 19.9 29.8637 20.09 30.7037 20.09C31.5437 20.09 32.2837 19.9 32.9237 19.52C33.5637 19.14 34.0637 18.61 34.4237 17.93C34.7837 17.25 34.9637 16.46 34.9637 15.56C34.9637 14.64 34.7837 13.85 34.4237 13.19C34.0637 12.51 33.5637 11.98 32.9237 11.6C32.2837 11.22 31.5437 11.03 30.7037 11.03C29.8637 11.03 29.1237 11.22 28.4837 11.6C27.8637 11.98 27.3637 12.51 26.9837 13.19C26.6237 13.85 26.4437 14.64 26.4437 15.56ZM45.1848 23H41.5248V8.18H44.9148L45.2148 10.1C45.6748 9.36 46.3248 8.78 47.1648 8.36C48.0248 7.94 48.9548 7.73 49.9548 7.73C51.8148 7.73 53.2148 8.28 54.1548 9.38C55.1148 10.48 55.5948 11.98 55.5948 13.88V23H51.9348V14.75C51.9348 13.51 51.6548 12.59 51.0948 11.99C50.5348 11.37 49.7748 11.06 48.8148 11.06C47.6748 11.06 46.7848 11.42 46.1448 12.14C45.5048 12.86 45.1848 13.82 45.1848 15.02V23ZM57.7208 8.18H71.2508V11.24H57.7208V8.18ZM66.7808 0.829999V3.95C66.5608 3.95 66.3408 3.95 66.1208 3.95C65.9208 3.95 65.7108 3.95 65.4908 3.95C64.6708 3.95 64.1308 4.17 63.8708 4.61C63.6108 5.05 63.4808 5.64 63.4808 6.38V23H59.8508V6.38C59.8508 5.02 60.0608 3.93 60.4808 3.11C60.9008 2.27 61.4908 1.66 62.2508 1.28C63.0108 0.879999 63.8908 0.679999 64.8908 0.679999C65.1708 0.679999 65.4708 0.689999 65.7908 0.709999C66.1308 0.729999 66.4608 0.769999 66.7808 0.829999ZM73.0508 23H69.3908V0.679999H73.0508V23ZM86.9069 8.18H90.5669V23H87.1769L86.9069 21.02C86.4669 21.72 85.8069 22.29 84.9269 22.73C84.0469 23.17 83.1069 23.39 82.1069 23.39C80.4069 23.39 79.0769 22.85 78.1169 21.77C77.1569 20.69 76.6769 19.25 76.6769 17.45V8.18H80.3369V16.16C80.3369 17.56 80.6069 18.57 81.1469 19.19C81.6869 19.81 82.4669 20.12 83.4869 20.12C84.6469 20.12 85.5069 19.78 86.0669 19.1C86.6269 18.4 86.9069 17.35 86.9069 15.95V8.18ZM100.684 23.39C99.2241 23.39 97.9241 23.06 96.7841 22.4C95.6641 21.72 94.7841 20.8 94.1441 19.64C93.5041 18.46 93.1841 17.11 93.1841 15.59C93.1841 14.05 93.4941 12.69 94.1141 11.51C94.7341 10.33 95.6041 9.41 96.7241 8.75C97.8441 8.07 99.1241 7.73 100.564 7.73C102.064 7.73 103.354 8.05 104.434 8.69C105.514 9.31 106.344 10.18 106.924 11.3C107.524 12.42 107.824 13.76 107.824 15.32V16.43L95.1041 16.46L95.1641 14.12H104.194C104.194 13.1 103.864 12.28 103.204 11.66C102.564 11.04 101.694 10.73 100.594 10.73C99.7341 10.73 99.0041 10.91 98.4041 11.27C97.8241 11.63 97.3841 12.17 97.0841 12.89C96.7841 13.61 96.6341 14.49 96.6341 15.53C96.6341 17.13 96.9741 18.34 97.6541 19.16C98.3541 19.98 99.3841 20.39 100.744 20.39C101.744 20.39 102.564 20.2 103.204 19.82C103.864 19.44 104.294 18.9 104.494 18.2H107.884C107.564 19.82 106.764 21.09 105.484 22.01C104.224 22.93 102.624 23.39 100.684 23.39ZM114.413 23H110.753V8.18H114.143L114.443 10.1C114.903 9.36 115.553 8.78 116.393 8.36C117.253 7.94 118.183 7.73 119.183 7.73C121.043 7.73 122.443 8.28 123.383 9.38C124.343 10.48 124.823 11.98 124.823 13.88V23H121.163V14.75C121.163 13.51 120.883 12.59 120.323 11.99C119.763 11.37 119.003 11.06 118.043 11.06C116.903 11.06 116.013 11.42 115.373 12.14C114.733 12.86 114.413 13.82 114.413 15.02V23ZM127.549 15.56C127.549 14.04 127.859 12.69 128.479 11.51C129.119 10.33 129.989 9.41 131.089 8.75C132.209 8.07 133.499 7.73 134.959 7.73C136.979 7.73 138.629 8.26 139.909 9.32C141.209 10.36 141.959 11.77 142.159 13.55H138.499C138.279 12.71 137.869 12.08 137.269 11.66C136.689 11.22 135.959 11 135.079 11C134.319 11 133.639 11.19 133.039 11.57C132.459 11.93 132.009 12.45 131.689 13.13C131.369 13.81 131.209 14.62 131.209 15.56C131.209 16.5 131.359 17.31 131.659 17.99C131.959 18.67 132.389 19.2 132.949 19.58C133.529 19.94 134.209 20.12 134.989 20.12C135.909 20.12 136.669 19.9 137.269 19.46C137.889 19.02 138.299 18.39 138.499 17.57H142.189C142.029 18.73 141.619 19.75 140.959 20.63C140.319 21.49 139.489 22.17 138.469 22.67C137.449 23.15 136.289 23.39 134.989 23.39C133.489 23.39 132.179 23.07 131.059 22.43C129.939 21.77 129.069 20.86 128.449 19.7C127.849 18.52 127.549 17.14 127.549 15.56ZM151.543 23.39C150.083 23.39 148.783 23.06 147.643 22.4C146.523 21.72 145.643 20.8 145.003 19.64C144.363 18.46 144.043 17.11 144.043 15.59C144.043 14.05 144.353 12.69 144.973 11.51C145.593 10.33 146.463 9.41 147.583 8.75C148.703 8.07 149.983 7.73 151.423 7.73C152.923 7.73 154.213 8.05 155.293 8.69C156.373 9.31 157.203 10.18 157.783 11.3C158.383 12.42 158.683 13.76 158.683 15.32V16.43L145.963 16.46L146.023 14.12H155.053C155.053 13.1 154.723 12.28 154.063 11.66C153.423 11.04 152.553 10.73 151.453 10.73C150.593 10.73 149.863 10.91 149.263 11.27C148.683 11.63 148.243 12.17 147.943 12.89C147.643 13.61 147.493 14.49 147.493 15.53C147.493 17.13 147.833 18.34 148.513 19.16C149.213 19.98 150.243 20.39 151.603 20.39C152.603 20.39 153.423 20.2 154.063 19.82C154.723 19.44 155.153 18.9 155.353 18.2H158.743C158.423 19.82 157.623 21.09 156.343 22.01C155.083 22.93 153.483 23.39 151.543 23.39Z" fill="white"/>
</svg>
