<svg width="228" height="62" viewBox="0 0 228 62" fill="none" xmlns="http://www.w3.org/2000/svg">
<path d="M4.27 23H0.43V1.07H4.27V10.16H13.99V1.07H17.83V23H13.99V13.7H4.27V23ZM32.1763 8.18H35.8363V23H32.4463L32.1763 21.02C31.7363 21.72 31.0763 22.29 30.1963 22.73C29.3163 23.17 28.3763 23.39 27.3763 23.39C25.6763 23.39 24.3463 22.85 23.3863 21.77C22.4263 20.69 21.9463 19.25 21.9463 17.45V8.18H25.6063V16.16C25.6063 17.56 25.8763 18.57 26.4163 19.19C26.9563 19.81 27.7363 20.12 28.7563 20.12C29.9163 20.12 30.7763 19.78 31.3363 19.1C31.8963 18.4 32.1763 17.35 32.1763 15.95V8.18ZM43.0066 23H39.6166V0.679999H43.2766V10.34C43.7566 9.5 44.4566 8.86 45.3766 8.42C46.2966 7.96 47.3266 7.73 48.4666 7.73C49.8866 7.73 51.0966 8.07 52.0966 8.75C53.1166 9.41 53.8966 10.34 54.4366 11.54C54.9966 12.74 55.2766 14.13 55.2766 15.71C55.2766 17.21 54.9866 18.54 54.4066 19.7C53.8266 20.86 53.0066 21.77 51.9466 22.43C50.8866 23.07 49.6466 23.39 48.2266 23.39C47.1266 23.39 46.1266 23.15 45.2266 22.67C44.3466 22.19 43.6866 21.53 43.2466 20.69L43.0066 23ZM43.3066 15.53C43.3066 16.41 43.4766 17.2 43.8166 17.9C44.1566 18.58 44.6366 19.11 45.2566 19.49C45.8966 19.85 46.6366 20.03 47.4766 20.03C48.3366 20.03 49.0766 19.84 49.6966 19.46C50.3166 19.08 50.7866 18.55 51.1066 17.87C51.4266 17.19 51.5866 16.41 51.5866 15.53C51.5866 14.65 51.4266 13.87 51.1066 13.19C50.7866 12.51 50.3166 11.98 49.6966 11.6C49.0766 11.2 48.3366 11 47.4766 11C46.6366 11 45.8966 11.2 45.2566 11.6C44.6366 11.98 44.1566 12.51 43.8166 13.19C43.4766 13.85 43.3066 14.63 43.3066 15.53ZM57.0508 18.5H60.5308C60.5508 19.14 60.7908 19.65 61.2508 20.03C61.7108 20.41 62.3508 20.6 63.1708 20.6C64.0508 20.6 64.7108 20.44 65.1508 20.12C65.6108 19.8 65.8408 19.37 65.8408 18.83C65.8408 18.47 65.7208 18.15 65.4808 17.87C65.2408 17.59 64.7908 17.38 64.1308 17.24L61.4608 16.61C60.1208 16.31 59.1208 15.83 58.4608 15.17C57.8208 14.49 57.5008 13.56 57.5008 12.38C57.5008 11.42 57.7508 10.59 58.2508 9.89C58.7708 9.19 59.4708 8.66 60.3508 8.3C61.2308 7.92 62.2408 7.73 63.3808 7.73C64.4808 7.73 65.4508 7.93 66.2908 8.33C67.1308 8.73 67.7808 9.29 68.2408 10.01C68.7208 10.73 68.9708 11.57 68.9908 12.53H65.5108C65.5108 11.89 65.3108 11.39 64.9108 11.03C64.5108 10.65 63.9508 10.46 63.2308 10.46C62.5108 10.46 61.9508 10.62 61.5508 10.94C61.1508 11.26 60.9508 11.69 60.9508 12.23C60.9508 13.05 61.5908 13.61 62.8708 13.91L65.5408 14.54C66.7808 14.82 67.7108 15.27 68.3308 15.89C68.9708 16.51 69.2908 17.39 69.2908 18.53C69.2908 19.53 69.0308 20.4 68.5108 21.14C67.9908 21.86 67.2608 22.42 66.3208 22.82C65.3808 23.2 64.3008 23.39 63.0808 23.39C61.2408 23.39 59.7708 22.94 58.6708 22.04C57.5908 21.14 57.0508 19.96 57.0508 18.5ZM72.0775 29.87V8.18H75.4675L75.7075 10.43C76.1475 9.57 76.8275 8.91 77.7475 8.45C78.6675 7.97 79.6775 7.73 80.7775 7.73C82.1975 7.73 83.4175 8.05 84.4375 8.69C85.4775 9.33 86.2875 10.22 86.8675 11.36C87.4475 12.5 87.7375 13.85 87.7375 15.41C87.7375 16.95 87.4675 18.32 86.9275 19.52C86.3875 20.72 85.5975 21.67 84.5575 22.37C83.5375 23.05 82.2875 23.39 80.8075 23.39C79.7075 23.39 78.6975 23.18 77.7775 22.76C76.8775 22.34 76.1975 21.76 75.7375 21.02V29.87H72.0775ZM75.7675 15.59C75.7675 16.47 75.9375 17.25 76.2775 17.93C76.6175 18.61 77.0975 19.15 77.7175 19.55C78.3575 19.93 79.0975 20.12 79.9375 20.12C80.7975 20.12 81.5375 19.93 82.1575 19.55C82.7775 19.15 83.2475 18.61 83.5675 17.93C83.8875 17.25 84.0475 16.47 84.0475 15.59C84.0475 14.71 83.8875 13.93 83.5675 13.25C83.2475 12.57 82.7775 12.04 82.1575 11.66C81.5375 11.26 80.7975 11.06 79.9375 11.06C79.0975 11.06 78.3575 11.25 77.7175 11.63C77.0975 12.01 76.6175 12.54 76.2775 13.22C75.9375 13.9 75.7675 14.69 75.7675 15.59ZM89.7817 15.56C89.7817 14.02 90.1217 12.67 90.8017 11.51C91.4817 10.33 92.4217 9.41 93.6217 8.75C94.8217 8.09 96.1817 7.76 97.7017 7.76C99.2417 7.76 100.602 8.09 101.782 8.75C102.982 9.41 103.922 10.33 104.602 11.51C105.282 12.67 105.622 14.02 105.622 15.56C105.622 17.1 105.282 18.46 104.602 19.64C103.922 20.8 102.982 21.71 101.782 22.37C100.602 23.03 99.2417 23.36 97.7017 23.36C96.1817 23.36 94.8217 23.03 93.6217 22.37C92.4217 21.71 91.4817 20.8 90.8017 19.64C90.1217 18.46 89.7817 17.1 89.7817 15.56ZM93.4417 15.56C93.4417 16.46 93.6217 17.25 93.9817 17.93C94.3617 18.61 94.8617 19.14 95.4817 19.52C96.1217 19.9 96.8617 20.09 97.7017 20.09C98.5417 20.09 99.2817 19.9 99.9217 19.52C100.562 19.14 101.062 18.61 101.422 17.93C101.782 17.25 101.962 16.46 101.962 15.56C101.962 14.64 101.782 13.85 101.422 13.19C101.062 12.51 100.562 11.98 99.9217 11.6C99.2817 11.22 98.5417 11.03 97.7017 11.03C96.8617 11.03 96.1217 11.22 95.4817 11.6C94.8617 11.98 94.3617 12.51 93.9817 13.19C93.6217 13.85 93.4417 14.64 93.4417 15.56ZM106.906 8.18H116.206V11.24H106.906V8.18ZM116.176 19.82L116.596 22.79C115.756 23.15 114.816 23.33 113.776 23.33C112.856 23.33 112.046 23.17 111.346 22.85C110.646 22.51 110.106 21.97 109.726 21.23C109.366 20.49 109.186 19.53 109.186 18.35V3.56H112.816V17.72C112.816 18.6 112.986 19.22 113.326 19.58C113.686 19.92 114.136 20.09 114.676 20.09C115.156 20.09 115.656 20 116.176 19.82ZM126.406 7.19C126.406 5.91 126.736 4.78 127.396 3.8C128.056 2.82 128.966 2.06 130.126 1.52C131.306 0.959999 132.666 0.679999 134.206 0.679999C135.686 0.679999 136.966 0.939999 138.046 1.46C139.146 1.98 139.996 2.72 140.596 3.68C141.216 4.64 141.546 5.78 141.586 7.1H137.746C137.706 6.16 137.366 5.43 136.726 4.91C136.086 4.37 135.226 4.1 134.146 4.1C132.966 4.1 132.016 4.37 131.296 4.91C130.596 5.43 130.246 6.15 130.246 7.07C130.246 7.85 130.456 8.47 130.876 8.93C131.316 9.37 131.996 9.7 132.916 9.92L136.366 10.7C138.246 11.1 139.646 11.79 140.566 12.77C141.486 13.73 141.946 15.03 141.946 16.67C141.946 18.01 141.616 19.19 140.956 20.21C140.296 21.23 139.356 22.02 138.136 22.58C136.936 23.12 135.526 23.39 133.906 23.39C132.366 23.39 131.016 23.13 129.856 22.61C128.696 22.07 127.786 21.32 127.126 20.36C126.486 19.4 126.146 18.27 126.106 16.97H129.946C129.966 17.89 130.326 18.62 131.026 19.16C131.746 19.68 132.716 19.94 133.936 19.94C135.216 19.94 136.226 19.68 136.966 19.16C137.726 18.62 138.106 17.91 138.106 17.03C138.106 16.27 137.906 15.67 137.506 15.23C137.106 14.77 136.456 14.45 135.556 14.27L132.076 13.49C130.216 13.09 128.806 12.37 127.846 11.33C126.886 10.27 126.406 8.89 126.406 7.19ZM151.51 23.39C150.05 23.39 148.75 23.06 147.61 22.4C146.49 21.72 145.61 20.8 144.97 19.64C144.33 18.46 144.01 17.11 144.01 15.59C144.01 14.05 144.32 12.69 144.94 11.51C145.56 10.33 146.43 9.41 147.55 8.75C148.67 8.07 149.95 7.73 151.39 7.73C152.89 7.73 154.18 8.05 155.26 8.69C156.34 9.31 157.17 10.18 157.75 11.3C158.35 12.42 158.65 13.76 158.65 15.32V16.43L145.93 16.46L145.99 14.12H155.02C155.02 13.1 154.69 12.28 154.03 11.66C153.39 11.04 152.52 10.73 151.42 10.73C150.56 10.73 149.83 10.91 149.23 11.27C148.65 11.63 148.21 12.17 147.91 12.89C147.61 13.61 147.46 14.49 147.46 15.53C147.46 17.13 147.8 18.34 148.48 19.16C149.18 19.98 150.21 20.39 151.57 20.39C152.57 20.39 153.39 20.2 154.03 19.82C154.69 19.44 155.12 18.9 155.32 18.2H158.71C158.39 19.82 157.59 21.09 156.31 22.01C155.05 22.93 153.45 23.39 151.51 23.39ZM170.879 8.12V11.51H169.529C168.189 11.51 167.139 11.87 166.379 12.59C165.619 13.29 165.239 14.36 165.239 15.8V23H161.579V8.21H165.029L165.329 11.27H164.969C165.169 10.29 165.639 9.49 166.379 8.87C167.119 8.25 168.079 7.94 169.259 7.94C169.519 7.94 169.779 7.95 170.039 7.97C170.299 7.99 170.579 8.04 170.879 8.12ZM177.996 23L172.116 8.18H176.016L178.596 14.99C178.916 15.87 179.186 16.68 179.406 17.42C179.646 18.14 179.816 18.7 179.916 19.1C180.016 18.64 180.186 18.05 180.426 17.33C180.686 16.59 180.976 15.81 181.296 14.99L183.996 8.18H187.776L181.596 23H177.996ZM189.88 23V8.18H193.54V23H189.88ZM191.68 5.21C191.06 5.21 190.53 5 190.09 4.58C189.67 4.14 189.46 3.61 189.46 2.99C189.46 2.37 189.67 1.85 190.09 1.43C190.53 1.01 191.06 0.8 191.68 0.8C192.3 0.8 192.82 1.01 193.24 1.43C193.68 1.85 193.9 2.37 193.9 2.99C193.9 3.61 193.68 4.14 193.24 4.58C192.82 5 192.3 5.21 191.68 5.21ZM196.452 15.56C196.452 14.04 196.762 12.69 197.382 11.51C198.022 10.33 198.892 9.41 199.992 8.75C201.112 8.07 202.402 7.73 203.862 7.73C205.882 7.73 207.532 8.26 208.812 9.32C210.112 10.36 210.862 11.77 211.062 13.55H207.402C207.182 12.71 206.772 12.08 206.172 11.66C205.592 11.22 204.862 11 203.982 11C203.222 11 202.542 11.19 201.942 11.57C201.362 11.93 200.912 12.45 200.592 13.13C200.272 13.81 200.112 14.62 200.112 15.56C200.112 16.5 200.262 17.31 200.562 17.99C200.862 18.67 201.292 19.2 201.852 19.58C202.432 19.94 203.112 20.12 203.892 20.12C204.812 20.12 205.572 19.9 206.172 19.46C206.792 19.02 207.202 18.39 207.402 17.57H211.092C210.932 18.73 210.522 19.75 209.862 20.63C209.222 21.49 208.392 22.17 207.372 22.67C206.352 23.15 205.192 23.39 203.892 23.39C202.392 23.39 201.082 23.07 199.962 22.43C198.842 21.77 197.972 20.86 197.352 19.7C196.752 18.52 196.452 17.14 196.452 15.56ZM220.446 23.39C218.986 23.39 217.686 23.06 216.546 22.4C215.426 21.72 214.546 20.8 213.906 19.64C213.266 18.46 212.946 17.11 212.946 15.59C212.946 14.05 213.256 12.69 213.876 11.51C214.496 10.33 215.366 9.41 216.486 8.75C217.606 8.07 218.886 7.73 220.326 7.73C221.826 7.73 223.116 8.05 224.196 8.69C225.276 9.31 226.106 10.18 226.686 11.3C227.286 12.42 227.586 13.76 227.586 15.32V16.43L214.866 16.46L214.926 14.12H223.956C223.956 13.1 223.626 12.28 222.966 11.66C222.326 11.04 221.456 10.73 220.356 10.73C219.496 10.73 218.766 10.91 218.166 11.27C217.586 11.63 217.146 12.17 216.846 12.89C216.546 13.61 216.396 14.49 216.396 15.53C216.396 17.13 216.736 18.34 217.416 19.16C218.116 19.98 219.146 20.39 220.506 20.39C221.506 20.39 222.326 20.2 222.966 19.82C223.626 19.44 224.056 18.9 224.256 18.2H227.646C227.326 19.82 226.526 21.09 225.246 22.01C223.986 22.93 222.386 23.39 220.446 23.39ZM4.27 61H0.43V39.07H4.27V48.16H13.99V39.07H17.83V61H13.99V51.7H4.27V61ZM32.1763 46.18H35.8363V61H32.4463L32.1763 59.02C31.7363 59.72 31.0763 60.29 30.1963 60.73C29.3163 61.17 28.3763 61.39 27.3763 61.39C25.6763 61.39 24.3463 60.85 23.3863 59.77C22.4263 58.69 21.9463 57.25 21.9463 55.45V46.18H25.6063V54.16C25.6063 55.56 25.8763 56.57 26.4163 57.19C26.9563 57.81 27.7363 58.12 28.7563 58.12C29.9163 58.12 30.7763 57.78 31.3363 57.1C31.8963 56.4 32.1763 55.35 32.1763 53.95V46.18ZM43.0066 61H39.6166V38.68H43.2766V48.34C43.7566 47.5 44.4566 46.86 45.3766 46.42C46.2966 45.96 47.3266 45.73 48.4666 45.73C49.8866 45.73 51.0966 46.07 52.0966 46.75C53.1166 47.41 53.8966 48.34 54.4366 49.54C54.9966 50.74 55.2766 52.13 55.2766 53.71C55.2766 55.21 54.9866 56.54 54.4066 57.7C53.8266 58.86 53.0066 59.77 51.9466 60.43C50.8866 61.07 49.6466 61.39 48.2266 61.39C47.1266 61.39 46.1266 61.15 45.2266 60.67C44.3466 60.19 43.6866 59.53 43.2466 58.69L43.0066 61ZM43.3066 53.53C43.3066 54.41 43.4766 55.2 43.8166 55.9C44.1566 56.58 44.6366 57.11 45.2566 57.49C45.8966 57.85 46.6366 58.03 47.4766 58.03C48.3366 58.03 49.0766 57.84 49.6966 57.46C50.3166 57.08 50.7866 56.55 51.1066 55.87C51.4266 55.19 51.5866 54.41 51.5866 53.53C51.5866 52.65 51.4266 51.87 51.1066 51.19C50.7866 50.51 50.3166 49.98 49.6966 49.6C49.0766 49.2 48.3366 49 47.4766 49C46.6366 49 45.8966 49.2 45.2566 49.6C44.6366 49.98 44.1566 50.51 43.8166 51.19C43.4766 51.85 43.3066 52.63 43.3066 53.53Z" fill="white"/>
</svg>
