<svg width="133" height="32" viewBox="0 0 133 32" fill="none" xmlns="http://www.w3.org/2000/svg">
<g clip-path="url(#clip0_1_8928)">
<path d="M16.0591 11.3184C16.0591 11.3184 19.2887 15.5554 19.2887 17.3924C19.2887 19.1998 17.8072 20.6813 15.9998 20.6813C14.1924 20.6813 12.7109 19.1998 12.7109 17.3924C12.7109 15.5554 16.0591 11.3184 16.0591 11.3184Z" fill="white"/>
<path d="M15.9998 0.800781C7.61462 0.800781 0.799805 7.6156 0.799805 16.0008C0.799805 24.386 7.61462 31.2008 15.9998 31.2008C24.385 31.2008 31.1998 24.386 31.1998 16.0008C31.1998 7.6156 24.385 0.800781 15.9998 0.800781ZM21.1257 3.58597C24.4146 4.94893 27.0517 7.58597 28.4146 10.8749L25.3331 12.1489C24.2961 9.66004 22.3406 7.67486 19.8517 6.66745L21.1257 3.58597ZM10.8739 3.58597L12.148 6.66745C9.65907 7.70449 7.67388 9.66004 6.66647 12.1489L3.58499 10.8749C4.94795 7.55634 7.55536 4.94893 10.8739 3.58597ZM10.8739 28.4156C7.58499 27.0526 4.94795 24.4156 3.58499 21.1267L6.66647 19.8526C7.70351 22.3415 9.65907 24.3267 12.148 25.3341L10.8739 28.4156ZM7.67388 16.0008C7.67388 11.4082 11.4072 7.67486 15.9998 7.67486C20.5924 7.67486 24.3257 11.4082 24.3257 16.0008C24.3257 20.5934 20.5924 24.3267 15.9998 24.3267C11.4072 24.3267 7.67388 20.5934 7.67388 16.0008ZM21.1257 28.4156L19.8517 25.3341C22.3406 24.2971 24.3257 22.3415 25.3331 19.8526L28.4146 21.1267C27.0517 24.4452 24.4443 27.0526 21.1257 28.4156Z" fill="white"/>
</g>
<path d="M50.56 23.0109H48V8.39086H50.56V14.4509H57.04V8.39086H59.6V23.0109H57.04V16.8109H50.56V23.0109Z" fill="white"/>
<path d="M66.8842 23.2709C65.9109 23.2709 65.0442 23.0509 64.2842 22.6109C63.5376 22.1575 62.9509 21.5442 62.5242 20.7709C62.0976 19.9842 61.8842 19.0842 61.8842 18.0709C61.8842 17.0442 62.0909 16.1375 62.5042 15.3509C62.9176 14.5642 63.4976 13.9509 64.2442 13.5109C64.9909 13.0575 65.8442 12.8309 66.8042 12.8309C67.8042 12.8309 68.6642 13.0442 69.3842 13.4709C70.1042 13.8842 70.6576 14.4642 71.0442 15.2109C71.4442 15.9575 71.6442 16.8509 71.6442 17.8909V18.6309L63.1642 18.6509L63.2042 17.0909H69.2242C69.2242 16.4109 69.0042 15.8642 68.5642 15.4509C68.1376 15.0375 67.5576 14.8309 66.8242 14.8309C66.2509 14.8309 65.7642 14.9509 65.3642 15.1909C64.9776 15.4309 64.6842 15.7909 64.4842 16.2709C64.2842 16.7509 64.1842 17.3375 64.1842 18.0309C64.1842 19.0975 64.4109 19.9042 64.8642 20.4509C65.3309 20.9975 66.0176 21.2709 66.9242 21.2709C67.5909 21.2709 68.1376 21.1442 68.5642 20.8909C69.0042 20.6375 69.2909 20.2775 69.4242 19.8109H71.6842C71.4709 20.8909 70.9376 21.7375 70.0842 22.3509C69.2442 22.9642 68.1776 23.2709 66.8842 23.2709Z" fill="white"/>
<path d="M76.057 23.0109H73.637V8.13086H76.057V23.0109Z" fill="white"/>
<path d="M78.6166 27.5909V13.1309H80.8766L81.0366 14.6309C81.3299 14.0575 81.7832 13.6175 82.3966 13.3109C83.0099 12.9909 83.6832 12.8309 84.4166 12.8309C85.3632 12.8309 86.1766 13.0442 86.8566 13.4709C87.5499 13.8975 88.0899 14.4909 88.4766 15.2509C88.8632 16.0109 89.0566 16.9109 89.0566 17.9509C89.0566 18.9775 88.8766 19.8909 88.5166 20.6909C88.1566 21.4909 87.6299 22.1242 86.9366 22.5909C86.2566 23.0442 85.4232 23.2709 84.4366 23.2709C83.7032 23.2709 83.0299 23.1309 82.4166 22.8509C81.8166 22.5709 81.3632 22.1842 81.0566 21.6909V27.5909H78.6166ZM81.0766 18.0709C81.0766 18.6575 81.1899 19.1775 81.4166 19.6309C81.6432 20.0842 81.9632 20.4442 82.3766 20.7109C82.8032 20.9642 83.2966 21.0909 83.8566 21.0909C84.4299 21.0909 84.9232 20.9642 85.3366 20.7109C85.7499 20.4442 86.0632 20.0842 86.2766 19.6309C86.4899 19.1775 86.5966 18.6575 86.5966 18.0709C86.5966 17.4842 86.4899 16.9642 86.2766 16.5109C86.0632 16.0575 85.7499 15.7042 85.3366 15.4509C84.9232 15.1842 84.4299 15.0509 83.8566 15.0509C83.2966 15.0509 82.8032 15.1775 82.3766 15.4309C81.9632 15.6842 81.6432 16.0375 81.4166 16.4909C81.1899 16.9442 81.0766 17.4709 81.0766 18.0709Z" fill="white"/>
<path d="M88.6394 27.6509L89.0394 25.4909C89.2127 25.5442 89.3594 25.5775 89.4794 25.5909C89.5994 25.6042 89.7327 25.6109 89.8794 25.6109C90.306 25.6109 90.5994 25.4909 90.7594 25.2509C90.9194 25.0109 90.9994 24.6442 90.9994 24.1509V13.1309H93.4394V24.4309C93.4394 25.4709 93.146 26.3042 92.5594 26.9309C91.986 27.5575 91.166 27.8709 90.0994 27.8709C89.8727 27.8709 89.6527 27.8575 89.4394 27.8309C89.226 27.8042 88.9594 27.7442 88.6394 27.6509ZM92.2194 11.1509C91.806 11.1509 91.4527 11.0109 91.1594 10.7309C90.8794 10.4375 90.7394 10.0842 90.7394 9.67086C90.7394 9.25753 90.8794 8.91086 91.1594 8.63086C91.4527 8.35086 91.806 8.21086 92.2194 8.21086C92.6194 8.21086 92.966 8.35086 93.2594 8.63086C93.5527 8.91086 93.6994 9.25753 93.6994 9.67086C93.6994 10.0842 93.5527 10.4375 93.2594 10.7309C92.966 11.0109 92.6194 11.1509 92.2194 11.1509Z" fill="white"/>
<path d="M102.66 13.1309H105.1V23.0109H102.84L102.66 21.6909C102.367 22.1575 101.927 22.5375 101.34 22.8309C100.754 23.1242 100.127 23.2709 99.4603 23.2709C98.327 23.2709 97.4403 22.9109 96.8003 22.1909C96.1603 21.4709 95.8403 20.5109 95.8403 19.3109V13.1309H98.2803V18.4509C98.2803 19.3842 98.4603 20.0575 98.8203 20.4709C99.1803 20.8842 99.7003 21.0909 100.38 21.0909C101.154 21.0909 101.727 20.8642 102.1 20.4109C102.474 19.9442 102.66 19.2442 102.66 18.3109V13.1309Z" fill="white"/>
<path d="M107.62 23.0109V13.1309H110.06V23.0109H107.62ZM108.82 11.1509C108.407 11.1509 108.054 11.0109 107.76 10.7309C107.48 10.4375 107.34 10.0842 107.34 9.67086C107.34 9.25753 107.48 8.91086 107.76 8.63086C108.054 8.35086 108.407 8.21086 108.82 8.21086C109.234 8.21086 109.58 8.35086 109.86 8.63086C110.154 8.91086 110.3 9.25753 110.3 9.67086C110.3 10.0842 110.154 10.4375 109.86 10.7309C109.58 11.0109 109.234 11.1509 108.82 11.1509Z" fill="white"/>
<path d="M112.001 18.0509C112.001 17.0375 112.208 16.1375 112.621 15.3509C113.048 14.5642 113.628 13.9509 114.361 13.5109C115.108 13.0575 115.968 12.8309 116.941 12.8309C118.288 12.8309 119.388 13.1842 120.241 13.8909C121.108 14.5842 121.608 15.5242 121.741 16.7109H119.301C119.155 16.1509 118.881 15.7309 118.481 15.4509C118.095 15.1575 117.608 15.0109 117.021 15.0109C116.515 15.0109 116.061 15.1375 115.661 15.3909C115.275 15.6309 114.975 15.9775 114.761 16.4309C114.548 16.8842 114.441 17.4242 114.441 18.0509C114.441 18.6775 114.541 19.2175 114.741 19.6709C114.941 20.1242 115.228 20.4775 115.601 20.7309C115.988 20.9709 116.441 21.0909 116.961 21.0909C117.575 21.0909 118.081 20.9442 118.481 20.6509C118.895 20.3575 119.168 19.9375 119.301 19.3909H121.761C121.655 20.1642 121.381 20.8442 120.941 21.4309C120.515 22.0042 119.961 22.4575 119.281 22.7909C118.601 23.1109 117.828 23.2709 116.961 23.2709C115.961 23.2709 115.088 23.0575 114.341 22.6309C113.595 22.1909 113.015 21.5842 112.601 20.8109C112.201 20.0242 112.001 19.1042 112.001 18.0509Z" fill="white"/>
<path d="M127.997 23.2709C127.024 23.2709 126.158 23.0509 125.397 22.6109C124.651 22.1575 124.064 21.5442 123.637 20.7709C123.211 19.9842 122.997 19.0842 122.997 18.0709C122.997 17.0442 123.204 16.1375 123.618 15.3509C124.031 14.5642 124.611 13.9509 125.357 13.5109C126.104 13.0575 126.958 12.8309 127.918 12.8309C128.918 12.8309 129.777 13.0442 130.497 13.4709C131.217 13.8842 131.771 14.4642 132.158 15.2109C132.558 15.9575 132.757 16.8509 132.757 17.8909V18.6309L124.277 18.6509L124.317 17.0909H130.338C130.338 16.4109 130.118 15.8642 129.677 15.4509C129.251 15.0375 128.671 14.8309 127.938 14.8309C127.364 14.8309 126.878 14.9509 126.478 15.1909C126.091 15.4309 125.798 15.7909 125.598 16.2709C125.398 16.7509 125.298 17.3375 125.298 18.0309C125.298 19.0975 125.524 19.9042 125.978 20.4509C126.444 20.9975 127.131 21.2709 128.037 21.2709C128.704 21.2709 129.251 21.1442 129.677 20.8909C130.118 20.6375 130.404 20.2775 130.537 19.8109H132.798C132.584 20.8909 132.051 21.7375 131.198 22.3509C130.357 22.9642 129.291 23.2709 127.997 23.2709Z" fill="white"/>
<defs>
<clipPath id="clip0_1_8928">
<rect width="32" height="32" fill="white"/>
</clipPath>
</defs>
</svg>
