<svg width="85" height="20" viewBox="0 0 85 20" fill="none" xmlns="http://www.w3.org/2000/svg">
<path d="M2.56 15.0109H0V0.39086H2.56V6.45086H9.04V0.39086H11.6V15.0109H9.04V8.81086H2.56V15.0109Z" fill="white"/>
<path d="M18.8842 15.2709C17.9109 15.2709 17.0442 15.0509 16.2842 14.6109C15.5376 14.1575 14.9509 13.5442 14.5242 12.7709C14.0976 11.9842 13.8842 11.0842 13.8842 10.0709C13.8842 9.04419 14.0909 8.13753 14.5042 7.35086C14.9176 6.56419 15.4976 5.95086 16.2442 5.51086C16.9909 5.05753 17.8442 4.83086 18.8042 4.83086C19.8042 4.83086 20.6642 5.04419 21.3842 5.47086C22.1042 5.88419 22.6576 6.46419 23.0442 7.21086C23.4442 7.95753 23.6442 8.85086 23.6442 9.89086V10.6309L15.1642 10.6509L15.2042 9.09086H21.2242C21.2242 8.41086 21.0042 7.86419 20.5642 7.45086C20.1376 7.03753 19.5576 6.83086 18.8242 6.83086C18.2509 6.83086 17.7642 6.95086 17.3642 7.19086C16.9776 7.43086 16.6842 7.79086 16.4842 8.27086C16.2842 8.75086 16.1842 9.33753 16.1842 10.0309C16.1842 11.0975 16.4109 11.9042 16.8642 12.4509C17.3309 12.9975 18.0176 13.2709 18.9242 13.2709C19.5909 13.2709 20.1376 13.1442 20.5642 12.8909C21.0042 12.6375 21.2909 12.2775 21.4242 11.8109H23.6842C23.4709 12.8909 22.9376 13.7375 22.0842 14.3509C21.2442 14.9642 20.1776 15.2709 18.8842 15.2709Z" fill="white"/>
<path d="M28.057 15.0109H25.637V0.130859H28.057V15.0109Z" fill="white"/>
<path d="M30.6166 19.5909V5.13086H32.8766L33.0366 6.63086C33.3299 6.05753 33.7832 5.61753 34.3966 5.31086C35.0099 4.99086 35.6832 4.83086 36.4166 4.83086C37.3632 4.83086 38.1766 5.04419 38.8566 5.47086C39.5499 5.89753 40.0899 6.49086 40.4766 7.25086C40.8632 8.01086 41.0566 8.91086 41.0566 9.95086C41.0566 10.9775 40.8766 11.8909 40.5166 12.6909C40.1566 13.4909 39.6299 14.1242 38.9366 14.5909C38.2566 15.0442 37.4232 15.2709 36.4366 15.2709C35.7032 15.2709 35.0299 15.1309 34.4166 14.8509C33.8166 14.5709 33.3632 14.1842 33.0566 13.6909V19.5909H30.6166ZM33.0766 10.0709C33.0766 10.6575 33.1899 11.1775 33.4166 11.6309C33.6432 12.0842 33.9632 12.4442 34.3766 12.7109C34.8032 12.9642 35.2966 13.0909 35.8566 13.0909C36.4299 13.0909 36.9232 12.9642 37.3366 12.7109C37.7499 12.4442 38.0632 12.0842 38.2766 11.6309C38.4899 11.1775 38.5966 10.6575 38.5966 10.0709C38.5966 9.48419 38.4899 8.96419 38.2766 8.51086C38.0632 8.05753 37.7499 7.70419 37.3366 7.45086C36.9232 7.18419 36.4299 7.05086 35.8566 7.05086C35.2966 7.05086 34.8032 7.17753 34.3766 7.43086C33.9632 7.68419 33.6432 8.03753 33.4166 8.49086C33.1899 8.94419 33.0766 9.47086 33.0766 10.0709Z" fill="white"/>
<path d="M40.6394 19.6509L41.0394 17.4909C41.2127 17.5442 41.3594 17.5775 41.4794 17.5909C41.5994 17.6042 41.7327 17.6109 41.8794 17.6109C42.306 17.6109 42.5994 17.4909 42.7594 17.2509C42.9194 17.0109 42.9994 16.6442 42.9994 16.1509V5.13086H45.4394V16.4309C45.4394 17.4709 45.146 18.3042 44.5594 18.9309C43.986 19.5575 43.166 19.8709 42.0994 19.8709C41.8727 19.8709 41.6527 19.8575 41.4394 19.8309C41.226 19.8042 40.9594 19.7442 40.6394 19.6509ZM44.2194 3.15086C43.806 3.15086 43.4527 3.01086 43.1594 2.73086C42.8794 2.43753 42.7394 2.08419 42.7394 1.67086C42.7394 1.25753 42.8794 0.910859 43.1594 0.630859C43.4527 0.350859 43.806 0.21086 44.2194 0.21086C44.6194 0.21086 44.966 0.350859 45.2594 0.630859C45.5527 0.910859 45.6994 1.25753 45.6994 1.67086C45.6994 2.08419 45.5527 2.43753 45.2594 2.73086C44.966 3.01086 44.6194 3.15086 44.2194 3.15086Z" fill="white"/>
<path d="M54.6603 5.13086H57.1003V15.0109H54.8403L54.6603 13.6909C54.367 14.1575 53.927 14.5375 53.3403 14.8309C52.7536 15.1242 52.127 15.2709 51.4603 15.2709C50.327 15.2709 49.4403 14.9109 48.8003 14.1909C48.1603 13.4709 47.8403 12.5109 47.8403 11.3109V5.13086H50.2803V10.4509C50.2803 11.3842 50.4603 12.0575 50.8203 12.4709C51.1803 12.8842 51.7003 13.0909 52.3803 13.0909C53.1536 13.0909 53.727 12.8642 54.1003 12.4109C54.4736 11.9442 54.6603 11.2442 54.6603 10.3109V5.13086Z" fill="white"/>
<path d="M59.6205 15.0109V5.13086H62.0605V15.0109H59.6205ZM60.8205 3.15086C60.4071 3.15086 60.0538 3.01086 59.7605 2.73086C59.4805 2.43753 59.3405 2.08419 59.3405 1.67086C59.3405 1.25753 59.4805 0.910859 59.7605 0.630859C60.0538 0.350859 60.4071 0.21086 60.8205 0.21086C61.2338 0.21086 61.5805 0.350859 61.8605 0.630859C62.1538 0.910859 62.3005 1.25753 62.3005 1.67086C62.3005 2.08419 62.1538 2.43753 61.8605 2.73086C61.5805 3.01086 61.2338 3.15086 60.8205 3.15086Z" fill="white"/>
<path d="M64.0014 10.0509C64.0014 9.03753 64.2081 8.13753 64.6214 7.35086C65.0481 6.56419 65.6281 5.95086 66.3614 5.51086C67.1081 5.05753 67.9681 4.83086 68.9414 4.83086C70.2881 4.83086 71.3881 5.18419 72.2414 5.89086C73.1081 6.58419 73.6081 7.52419 73.7414 8.71086H71.3014C71.1547 8.15086 70.8814 7.73086 70.4814 7.45086C70.0947 7.15753 69.6081 7.01086 69.0214 7.01086C68.5147 7.01086 68.0614 7.13753 67.6614 7.39086C67.2747 7.63086 66.9747 7.97753 66.7614 8.43086C66.5481 8.88419 66.4414 9.42419 66.4414 10.0509C66.4414 10.6775 66.5414 11.2175 66.7414 11.6709C66.9414 12.1242 67.2281 12.4775 67.6014 12.7309C67.9881 12.9709 68.4414 13.0909 68.9614 13.0909C69.5747 13.0909 70.0814 12.9442 70.4814 12.6509C70.8947 12.3575 71.1681 11.9375 71.3014 11.3909H73.7614C73.6547 12.1642 73.3814 12.8442 72.9414 13.4309C72.5147 14.0042 71.9614 14.4575 71.2814 14.7909C70.6014 15.1109 69.8281 15.2709 68.9614 15.2709C67.9614 15.2709 67.0881 15.0575 66.3414 14.6309C65.5947 14.1909 65.0147 13.5842 64.6014 12.8109C64.2014 12.0242 64.0014 11.1042 64.0014 10.0509Z" fill="white"/>
<path d="M79.9975 15.2709C79.0242 15.2709 78.1575 15.0509 77.3975 14.6109C76.6508 14.1575 76.0642 13.5442 75.6375 12.7709C75.2108 11.9842 74.9975 11.0842 74.9975 10.0709C74.9975 9.04419 75.2042 8.13753 75.6175 7.35086C76.0308 6.56419 76.6108 5.95086 77.3575 5.51086C78.1042 5.05753 78.9575 4.83086 79.9175 4.83086C80.9175 4.83086 81.7775 5.04419 82.4975 5.47086C83.2175 5.88419 83.7708 6.46419 84.1575 7.21086C84.5575 7.95753 84.7575 8.85086 84.7575 9.89086V10.6309L76.2775 10.6509L76.3175 9.09086H82.3375C82.3375 8.41086 82.1175 7.86419 81.6775 7.45086C81.2508 7.03753 80.6708 6.83086 79.9375 6.83086C79.3642 6.83086 78.8775 6.95086 78.4775 7.19086C78.0908 7.43086 77.7975 7.79086 77.5975 8.27086C77.3975 8.75086 77.2975 9.33753 77.2975 10.0309C77.2975 11.0975 77.5242 11.9042 77.9775 12.4509C78.4442 12.9975 79.1308 13.2709 80.0375 13.2709C80.7042 13.2709 81.2508 13.1442 81.6775 12.8909C82.1175 12.6375 82.4042 12.2775 82.5375 11.8109H84.7975C84.5842 12.8909 84.0508 13.7375 83.1975 14.3509C82.3575 14.9642 81.2908 15.2709 79.9975 15.2709Z" fill="white"/>
</svg>
