<svg width="106" height="31" viewBox="0 0 106 31" fill="none" xmlns="http://www.w3.org/2000/svg">
<g clip-path="url(#clip0_1_9044)">
<path d="M11.48 4.97461V13.4496H3.694V4.97461H0V25.2056H3.695V17.0056H11.479V25.2056H15.175V4.97461H11.48ZM27.002 18.6666C27.002 19.4775 26.6799 20.2552 26.1065 20.8286C25.5331 21.402 24.7554 21.7241 23.9445 21.7241C23.1336 21.7241 22.3559 21.402 21.7825 20.8286C21.2091 20.2552 20.887 19.4775 20.887 18.6666V10.0006H17.382V18.6666C17.382 20.4054 18.0727 22.0729 19.3022 23.3024C20.5317 24.5319 22.1992 25.2226 23.938 25.2226C25.6768 25.2226 27.3443 24.5319 28.5738 23.3024C29.8033 22.0729 30.494 20.4054 30.494 18.6666V10.0006H27.002V18.6666ZM52.973 10.8936C52.973 9.11661 54.148 8.55361 55.435 8.55361C56.473 8.55361 57.843 9.34361 58.74 10.3016L61.035 7.59561C59.889 6.04561 57.565 4.97461 55.662 4.97461C51.859 4.97461 49.109 7.20161 49.109 10.8936C49.109 17.7436 57.481 15.5696 57.481 19.4036C57.481 20.5856 56.333 21.6296 55.019 21.6296C52.946 21.6296 52.274 20.6166 51.322 19.5446L48.774 22.1936C50.404 24.1936 52.414 25.2096 54.821 25.2096C58.434 25.2096 61.34 22.9556 61.34 19.4316C61.34 11.8276 52.967 14.1906 52.967 10.8936M104.767 21.9736C102.696 21.9736 102.107 21.0776 102.107 19.7056V13.6306H105.327V10.5526H102.107V6.49161L98.553 8.08661V20.4606C98.553 23.6256 100.737 25.2206 103.731 25.2206C104.201 25.2286 104.671 25.1906 105.133 25.1086L106 21.9166C105.609 21.9436 105.16 21.9706 104.767 21.9706M40.344 10.1016C38.608 10.1016 37.396 10.6056 36.224 11.7546V5.09561H32.714V17.4386C32.714 22.0586 36.054 25.2246 39.808 25.2246C43.972 25.2246 47.635 22.0026 47.635 17.6646C47.635 13.3806 44.264 10.1046 40.344 10.1046M40.322 21.6916C39.7989 21.6916 39.2809 21.5886 38.7976 21.3884C38.3143 21.1882 37.8751 20.8948 37.5052 20.5249C37.1353 20.155 36.8419 19.7158 36.6417 19.2325C36.4415 18.7492 36.3385 18.2312 36.3385 17.7081C36.3385 17.185 36.4415 16.667 36.6417 16.1837C36.8419 15.7004 37.1353 15.2613 37.5052 14.8913C37.8751 14.5214 38.3143 14.228 38.7976 14.0278C39.2809 13.8276 39.7989 13.7246 40.322 13.7246C41.3785 13.7246 42.3917 14.1443 43.1388 14.8913C43.8858 15.6384 44.3055 16.6516 44.3055 17.7081C44.3055 18.7646 43.8858 19.7778 43.1388 20.5249C42.3917 21.2719 41.3785 21.6916 40.322 21.6916ZM78.464 17.4806C78.464 13.1346 74.809 9.92061 70.637 9.92061C66.884 9.92061 63.543 13.0856 63.543 17.7066V30.0566H67.053V23.3886C68.223 24.5356 69.437 25.0416 71.171 25.0416C75.091 25.0416 78.464 21.7656 78.464 17.4806ZM75.14 17.4366C75.14 18.4931 74.7203 19.5063 73.9733 20.2534C73.2262 21.0004 72.213 21.4201 71.1565 21.4201C70.1 21.4201 69.0868 21.0004 68.3397 20.2534C67.5927 19.5063 67.173 18.4931 67.173 17.4366C67.173 16.3801 67.5927 15.3669 68.3397 14.6198C69.0868 13.8728 70.1 13.4531 71.1565 13.4531C72.213 13.4531 73.2262 13.8728 73.9733 14.6198C74.7203 15.3669 75.14 16.3801 75.14 17.4366Z" fill="white"/>
<path d="M89.806 9.75005V6.22305C90.2721 6.00522 90.6667 5.65949 90.9439 5.22611C91.2212 4.79272 91.3696 4.28951 91.372 3.77505V3.69405C91.372 2.19405 90.156 0.978046 88.656 0.978046H88.575C87.8547 0.978046 87.1638 1.26419 86.6545 1.77354C86.1451 2.28289 85.859 2.97372 85.859 3.69405V3.77505C85.8614 4.28951 86.0098 4.79272 86.287 5.22611C86.5643 5.65949 86.9589 6.00522 87.425 6.22305V9.75005C86.0854 9.95516 84.8238 10.5106 83.768 11.36L74.095 3.82605C74.164 3.57705 74.2 3.32105 74.204 3.06405C74.2052 2.45875 74.0268 1.8667 73.6915 1.36279C73.3561 0.85887 72.8789 0.465727 72.3201 0.233086C71.7613 0.000444785 71.146 -0.0612431 70.5522 0.0558254C69.9583 0.172894 69.4125 0.463459 68.9838 0.890768C68.5551 1.31808 68.2627 1.86293 68.1437 2.45641C68.0247 3.04989 68.0844 3.66534 68.3152 4.2249C68.546 4.78446 68.9376 5.263 69.4404 5.59998C69.9432 5.93696 70.5347 6.11725 71.14 6.11805C71.6695 6.11555 72.1892 5.97418 72.647 5.70805L82.172 13.12C81.3163 14.4127 80.8699 15.9332 80.891 17.4832C80.912 19.0333 81.3995 20.5411 82.29 21.81L79.393 24.708C79.1588 24.6332 78.9148 24.5934 78.669 24.59C78.1721 24.5904 77.6865 24.7381 77.2736 25.0144C76.8606 25.2907 76.5388 25.6832 76.3489 26.1423C76.1589 26.6014 76.1093 27.1065 76.2064 27.5938C76.3034 28.0811 76.5427 28.5287 76.894 28.88C77.2454 29.2313 77.6929 29.4706 78.1802 29.5677C78.6675 29.6647 79.1726 29.6151 79.6317 29.4251C80.0909 29.2352 80.4833 28.9134 80.7596 28.5004C81.0359 28.0875 81.1836 27.6019 81.184 27.105C81.1808 26.8592 81.141 26.6152 81.066 26.381L83.932 23.514C84.8666 24.2336 85.9534 24.7296 87.1093 24.9642C88.2652 25.1987 89.4595 25.1656 90.6006 24.8673C91.7417 24.5691 92.7995 24.0135 93.6927 23.2433C94.586 22.4731 95.2911 21.5087 95.7541 20.4239C96.217 19.3391 96.4255 18.1627 96.3636 16.9849C96.3017 15.807 95.971 14.659 95.3969 13.6287C94.8227 12.5984 94.0204 11.7132 93.0513 11.0409C92.0822 10.3686 90.9721 9.92704 89.806 9.75005ZM88.618 21.35C88.0883 21.3646 87.5611 21.2729 87.0675 21.0802C86.5739 20.8876 86.1239 20.598 85.7441 20.2285C85.3643 19.859 85.0624 19.4172 84.8563 18.929C84.6501 18.4409 84.5439 17.9164 84.5439 17.3865C84.5439 16.8567 84.6501 16.3322 84.8563 15.8441C85.0624 15.3559 85.3643 14.9141 85.7441 14.5446C86.1239 14.1751 86.5739 13.8855 87.0675 13.6928C87.5611 13.5002 88.0883 13.4085 88.618 13.423C89.6446 13.459 90.6171 13.8919 91.3308 14.6307C92.0445 15.3695 92.4437 16.3564 92.4442 17.3836C92.4447 18.4108 92.0466 19.3981 91.3336 20.1376C90.6207 20.8771 89.6485 21.3111 88.622 21.348" fill="white"/>
</g>
<defs>
<clipPath id="clip0_1_9044">
<rect width="106" height="31" fill="white"/>
</clipPath>
</defs>
</svg>
