<svg width="20" height="16" viewBox="0 0 20 16" fill="none" xmlns="http://www.w3.org/2000/svg">
<path d="M1.66666 3.83398L8.47076 8.59685C9.02173 8.98254 9.29722 9.17538 9.59688 9.25007C9.86157 9.31605 10.1384 9.31605 10.4031 9.25007C10.7028 9.17538 10.9782 8.98254 11.5292 8.59685L18.3333 3.83398M5.66666 14.6673H14.3333C15.7335 14.6673 16.4335 14.6673 16.9683 14.3948C17.4387 14.1552 17.8212 13.7727 18.0608 13.3023C18.3333 12.7675 18.3333 12.0674 18.3333 10.6673V5.33398C18.3333 3.93385 18.3333 3.23379 18.0608 2.69901C17.8212 2.2286 17.4387 1.84615 16.9683 1.60647C16.4335 1.33398 15.7335 1.33398 14.3333 1.33398H5.66666C4.26653 1.33398 3.56646 1.33398 3.03168 1.60647C2.56128 1.84615 2.17882 2.2286 1.93914 2.69901C1.66666 3.23379 1.66666 3.93385 1.66666 5.33398V10.6673C1.66666 12.0674 1.66666 12.7675 1.93914 13.3023C2.17882 13.7727 2.56128 14.1552 3.03168 14.3948C3.56646 14.6673 4.26653 14.6673 5.66666 14.6673Z" stroke="white" stroke-opacity="0.56" stroke-width="1.66667" stroke-linecap="round" stroke-linejoin="round"/>
</svg>
