<svg width="20" height="20" viewBox="0 0 20 20" fill="none" xmlns="http://www.w3.org/2000/svg">
<path d="M4.16602 12.4993C3.38945 12.4993 3.00116 12.4993 2.69488 12.3725C2.2865 12.2033 1.96204 11.8789 1.79288 11.4705C1.66602 11.1642 1.66602 10.7759 1.66602 9.99935V4.33268C1.66602 3.39926 1.66602 2.93255 1.84767 2.57603C2.00746 2.26243 2.26243 2.00746 2.57603 1.84767C2.93255 1.66602 3.39926 1.66602 4.33268 1.66602H9.99935C10.7759 1.66602 11.1642 1.66602 11.4705 1.79288C11.8789 1.96204 12.2033 2.2865 12.3725 2.69488C12.4993 3.00116 12.4993 3.38945 12.4993 4.16602M10.166 18.3327H15.666C16.5994 18.3327 17.0661 18.3327 17.4227 18.151C17.7363 17.9912 17.9912 17.7363 18.151 17.4227C18.3327 17.0661 18.3327 16.5994 18.3327 15.666V10.166C18.3327 9.23259 18.3327 8.76588 18.151 8.40937C17.9912 8.09576 17.7363 7.84079 17.4227 7.68101C17.0661 7.49935 16.5994 7.49935 15.666 7.49935H10.166C9.23259 7.49935 8.76588 7.49935 8.40937 7.68101C8.09576 7.84079 7.84079 8.09576 7.68101 8.40937C7.49935 8.76588 7.49935 9.2326 7.49935 10.166V15.666C7.49935 16.5994 7.49935 17.0661 7.68101 17.4227C7.84079 17.7363 8.09576 17.9912 8.40937 18.151C8.76588 18.3327 9.2326 18.3327 10.166 18.3327Z" stroke="white" stroke-width="1.66667" stroke-linecap="round" stroke-linejoin="round"/>
</svg>
