<svg width="39" height="20" viewBox="0 0 39 20" fill="none" xmlns="http://www.w3.org/2000/svg">
<path d="M37.5497 9.12122C37.9634 8.44658 38.428 7.66373 38.8226 7.04C38.9924 6.75308 39.0429 6.411 38.9631 6.08729C38.8834 5.76357 38.6798 5.48406 38.3962 5.30883L30.1222 0.217144C29.9774 0.119582 29.814 0.05287 29.6422 0.0211593C29.4705 -0.0105514 29.2941 -0.00658268 29.1239 0.0328184C28.9538 0.0722195 28.7936 0.14621 28.6533 0.250187C28.5129 0.354164 28.3955 0.485903 28.3083 0.637207C27.9773 1.19093 27.5509 1.91013 27.0863 2.68025C23.8085 8.09016 20.5117 7.42824 14.5671 4.58963L6.3886 0.707218C6.23481 0.634018 6.06789 0.592426 5.89773 0.584906C5.72757 0.577387 5.55763 0.604093 5.39798 0.663442C5.23834 0.722791 5.09222 0.813577 4.96829 0.930421C4.84437 1.04727 4.74515 1.18779 4.67652 1.34368L0.736831 10.2541C0.603044 10.56 0.594786 10.9062 0.713837 11.2181C0.832889 11.53 1.06972 11.7827 1.37329 11.9216C3.10446 12.7363 6.54771 14.3593 9.64728 15.855C20.8235 21.2649 30.3004 20.9021 37.5497 9.12122Z" fill="white"/>
</svg>
