<svg width="29" height="30" viewBox="0 0 29 30" fill="none" xmlns="http://www.w3.org/2000/svg">
<path d="M21.806 9.75005V6.22305C22.2721 6.00522 22.6667 5.65949 22.9439 5.22611C23.2212 4.79272 23.3696 4.28951 23.372 3.77505V3.69405C23.372 2.19405 22.156 0.978046 20.656 0.978046H20.575C19.8547 0.978046 19.1638 1.26419 18.6545 1.77354C18.1451 2.28289 17.859 2.97372 17.859 3.69405V3.77505C17.8614 4.28951 18.0098 4.79272 18.287 5.22611C18.5643 5.65949 18.9589 6.00522 19.425 6.22305V9.75005C18.0854 9.95516 16.8238 10.5106 15.768 11.36L6.09498 3.82605C6.16398 3.57705 6.19998 3.32105 6.20398 3.06405C6.20517 2.45875 6.02681 1.8667 5.69147 1.36279C5.35613 0.85887 4.87888 0.465727 4.32008 0.233086C3.76128 0.000444785 3.14603 -0.0612431 2.55216 0.0558254C1.95829 0.172894 1.41248 0.463459 0.983777 0.890768C0.555069 1.31808 0.262721 1.86293 0.143712 2.45641C0.0247029 3.04989 0.0843847 3.66534 0.315198 4.2249C0.546011 4.78446 0.937587 5.263 1.4404 5.59998C1.94322 5.93696 2.53469 6.11725 3.13998 6.11805C3.66953 6.11555 4.18916 5.97418 4.64699 5.70805L14.172 13.12C13.3163 14.4127 12.8699 15.9332 12.891 17.4832C12.912 19.0333 13.3995 20.5411 14.29 21.81L11.393 24.708C11.1588 24.6332 10.9148 24.5934 10.669 24.59C10.1721 24.5904 9.68654 24.7381 9.27359 25.0144C8.86063 25.2907 8.53884 25.6832 8.34889 26.1423C8.15893 26.6014 8.10934 27.1065 8.20636 27.5938C8.30339 28.0811 8.5427 28.5287 8.89402 28.88C9.24535 29.2313 9.69294 29.4706 10.1802 29.5677C10.6675 29.6647 11.1726 29.6151 11.6317 29.4251C12.0909 29.2352 12.4833 28.9134 12.7596 28.5004C13.0359 28.0875 13.1836 27.6019 13.184 27.105C13.1808 26.8592 13.141 26.6152 13.066 26.381L15.932 23.514C16.8666 24.2336 17.9534 24.7296 19.1093 24.9642C20.2652 25.1987 21.4595 25.1656 22.6006 24.8673C23.7417 24.5691 24.7995 24.0135 25.6927 23.2433C26.586 22.4731 27.2911 21.5087 27.7541 20.4239C28.217 19.3391 28.4255 18.1627 28.3636 16.9849C28.3017 15.807 27.971 14.659 27.3969 13.6287C26.8227 12.5984 26.0204 11.7132 25.0513 11.0409C24.0822 10.3686 22.9721 9.92704 21.806 9.75005ZM20.618 21.35C20.0883 21.3646 19.5611 21.2729 19.0675 21.0802C18.5739 20.8876 18.1239 20.598 17.7441 20.2285C17.3643 19.859 17.0624 19.4172 16.8563 18.929C16.6501 18.4409 16.5439 17.9164 16.5439 17.3865C16.5439 16.8567 16.6501 16.3322 16.8563 15.8441C17.0624 15.3559 17.3643 14.9141 17.7441 14.5446C18.1239 14.1751 18.5739 13.8855 19.0675 13.6928C19.5611 13.5002 20.0883 13.4085 20.618 13.423C21.6446 13.459 22.6171 13.8919 23.3308 14.6307C24.0445 15.3695 24.4437 16.3564 24.4442 17.3836C24.4447 18.4108 24.0466 19.3981 23.3336 20.1376C22.6207 20.8771 21.6485 21.3111 20.622 21.348" fill="white"/>
</svg>
