<svg width="106" height="27" viewBox="0 0 106 27" fill="none" xmlns="http://www.w3.org/2000/svg">
<path d="M11.48 0.974609V9.44961H3.694V0.974609H0V21.2056H3.695V13.0056H11.479V21.2056H15.175V0.974609H11.48ZM27.002 14.6666C27.002 15.4775 26.6799 16.2552 26.1065 16.8286C25.5331 17.402 24.7554 17.7241 23.9445 17.7241C23.1336 17.7241 22.3559 17.402 21.7825 16.8286C21.2091 16.2552 20.887 15.4775 20.887 14.6666V6.00061H17.382V14.6666C17.382 16.4054 18.0727 18.0729 19.3022 19.3024C20.5317 20.5319 22.1992 21.2226 23.938 21.2226C25.6768 21.2226 27.3443 20.5319 28.5738 19.3024C29.8033 18.0729 30.494 16.4054 30.494 14.6666V6.00061H27.002V14.6666ZM52.973 6.89361C52.973 5.11661 54.148 4.55361 55.435 4.55361C56.473 4.55361 57.843 5.34361 58.74 6.30161L61.035 3.59561C59.889 2.04561 57.565 0.974609 55.662 0.974609C51.859 0.974609 49.109 3.20161 49.109 6.89361C49.109 13.7436 57.481 11.5696 57.481 15.4036C57.481 16.5856 56.333 17.6296 55.019 17.6296C52.946 17.6296 52.274 16.6166 51.322 15.5446L48.774 18.1936C50.404 20.1936 52.414 21.2096 54.821 21.2096C58.434 21.2096 61.34 18.9556 61.34 15.4316C61.34 7.82761 52.967 10.1906 52.967 6.89361M104.767 17.9736C102.696 17.9736 102.107 17.0776 102.107 15.7056V9.63061H105.327V6.55261H102.107V2.49161L98.553 4.08661V16.4606C98.553 19.6256 100.737 21.2206 103.731 21.2206C104.201 21.2286 104.671 21.1906 105.133 21.1086L106 17.9166C105.609 17.9436 105.16 17.9706 104.767 17.9706M40.344 6.10161C38.608 6.10161 37.396 6.60561 36.224 7.75461V1.09561H32.714V13.4386C32.714 18.0586 36.054 21.2246 39.808 21.2246C43.972 21.2246 47.635 18.0026 47.635 13.6646C47.635 9.38061 44.264 6.10461 40.344 6.10461M40.322 17.6916C39.7989 17.6916 39.2809 17.5886 38.7976 17.3884C38.3143 17.1882 37.8751 16.8948 37.5052 16.5249C37.1353 16.155 36.8419 15.7158 36.6417 15.2325C36.4415 14.7492 36.3385 14.2312 36.3385 13.7081C36.3385 13.185 36.4415 12.667 36.6417 12.1837C36.8419 11.7004 37.1353 11.2613 37.5052 10.8913C37.8751 10.5214 38.3143 10.228 38.7976 10.0278C39.2809 9.82765 39.7989 9.72461 40.322 9.72461C41.3785 9.72461 42.3917 10.1443 43.1388 10.8913C43.8858 11.6384 44.3055 12.6516 44.3055 13.7081C44.3055 14.7646 43.8858 15.7778 43.1388 16.5249C42.3917 17.2719 41.3785 17.6916 40.322 17.6916ZM78.464 13.4806C78.464 9.13461 74.809 5.92061 70.637 5.92061C66.884 5.92061 63.543 9.08561 63.543 13.7066V26.0566H67.053V19.3886C68.223 20.5356 69.437 21.0416 71.171 21.0416C75.091 21.0416 78.464 17.7656 78.464 13.4806ZM75.14 13.4366C75.14 14.4931 74.7203 15.5063 73.9733 16.2534C73.2262 17.0004 72.213 17.4201 71.1565 17.4201C70.1 17.4201 69.0868 17.0004 68.3397 16.2534C67.5927 15.5063 67.173 14.4931 67.173 13.4366C67.173 12.3801 67.5927 11.3669 68.3397 10.6198C69.0868 9.8728 70.1 9.45311 71.1565 9.45311C72.213 9.45311 73.2262 9.8728 73.9733 10.6198C74.7203 11.3669 75.14 12.3801 75.14 13.4366Z" fill="white"/>
</svg>
