<svg width="20" height="18" viewBox="0 0 20 18" fill="none" xmlns="http://www.w3.org/2000/svg">
<path d="M6.2896 17.126C13.8368 17.126 17.9648 10.8732 17.9648 5.45084C17.9648 5.27324 17.9648 5.09644 17.9528 4.92044C18.7559 4.33957 19.4491 3.62034 20 2.79644C19.2512 3.12844 18.4567 3.34607 17.6432 3.44204C18.4998 2.92928 19.141 2.12269 19.4472 1.17244C18.6417 1.65045 17.7605 1.9873 16.8416 2.16844C16.2229 1.51059 15.4047 1.07497 14.5135 0.929011C13.6223 0.783047 12.7078 0.934869 11.9116 1.36098C11.1154 1.7871 10.4819 2.46375 10.109 3.28623C9.73605 4.10871 9.64462 5.03116 9.8488 5.91084C8.21741 5.82901 6.62146 5.40503 5.16455 4.66644C3.70763 3.92786 2.4223 2.89116 1.392 1.62364C0.867274 2.52697 0.70656 3.59633 0.942583 4.61399C1.17861 5.63165 1.79362 6.5211 2.6624 7.10124C2.00936 7.08211 1.37054 6.90594 0.8 6.58764V6.63964C0.800259 7.58702 1.12821 8.50514 1.72823 9.23828C2.32824 9.97142 3.16338 10.4744 4.092 10.662C3.4879 10.8268 2.85406 10.8509 2.2392 10.7324C2.50151 11.5477 3.01202 12.2606 3.69937 12.7716C4.38671 13.2825 5.21652 13.5658 6.0728 13.582C5.22203 14.2508 4.24776 14.7452 3.20573 15.037C2.16369 15.3289 1.07435 15.4124 0 15.2828C1.87653 16.487 4.05994 17.1258 6.2896 17.1228" fill="white"/>
</svg>
