<svg width="39" height="20" viewBox="0 0 39 20" fill="none" xmlns="http://www.w3.org/2000/svg">
<path d="M1.45036 10.3409C1.03666 11.0156 0.572047 11.7984 0.177441 12.4221C0.00765446 12.7091 -0.0427907 13.0511 0.036948 13.3749C0.116687 13.6986 0.320244 13.9781 0.60387 14.1533L8.87785 19.245C9.02163 19.3338 9.18164 19.393 9.34856 19.4193C9.51548 19.4456 9.68596 19.4384 9.85006 19.3981C10.0142 19.3578 10.1686 19.2853 10.3044 19.1847C10.4401 19.0841 10.5545 18.9575 10.6409 18.8122C10.9718 18.2585 11.3982 17.5393 11.8629 16.7692C15.1406 11.3592 18.4375 12.0212 24.382 14.8598L32.586 18.7613C32.7398 18.8345 32.9067 18.8761 33.0769 18.8836C33.247 18.8911 33.417 18.8644 33.5766 18.8051C33.7363 18.7457 33.8824 18.6549 34.0063 18.5381C34.1302 18.4212 34.2295 18.2807 34.2981 18.1248L38.2378 9.21438C38.3716 8.90849 38.3798 8.56229 38.2608 8.25038C38.1417 7.93846 37.9049 7.6858 37.6013 7.54685C35.8701 6.73218 32.4269 5.10921 29.3273 3.61353C18.1765 -1.80275 8.69965 -1.4527 1.45036 10.3409Z" fill="white"/>
</svg>
