<svg width="32" height="32" viewBox="0 0 32 32" fill="none" xmlns="http://www.w3.org/2000/svg">
<path d="M15.9998 0.800781C7.61462 0.800781 0.799805 7.6156 0.799805 16.0008C0.799805 24.386 7.61462 31.2008 15.9998 31.2008C24.385 31.2008 31.1998 24.386 31.1998 16.0008C31.1998 7.6156 24.385 0.800781 15.9998 0.800781ZM21.1257 3.58597C24.4146 4.94893 27.0517 7.58597 28.4146 10.8749L25.3331 12.1489C24.2961 9.66004 22.3406 7.67486 19.8517 6.66745L21.1257 3.58597ZM10.8739 3.58597L12.148 6.66745C9.65907 7.70449 7.67388 9.66004 6.66647 12.1489L3.58499 10.8749C4.94795 7.55634 7.55536 4.94893 10.8739 3.58597ZM10.8739 28.4156C7.58499 27.0526 4.94795 24.4156 3.58499 21.1267L6.66647 19.8526C7.70351 22.3415 9.65907 24.3267 12.148 25.3341L10.8739 28.4156ZM7.67388 16.0008C7.67388 11.4082 11.4072 7.67486 15.9998 7.67486C20.5924 7.67486 24.3257 11.4082 24.3257 16.0008C24.3257 20.5934 20.5924 24.3267 15.9998 24.3267C11.4072 24.3267 7.67388 20.5934 7.67388 16.0008ZM21.1257 28.4156L19.8517 25.3341C22.3406 24.2971 24.3257 22.3415 25.3331 19.8526L28.4146 21.1267C27.0517 24.4452 24.4443 27.0526 21.1257 28.4156Z" fill="white"/>
</svg>
